<svg width="50" height="50" viewBox="0 0 50 50" fill="none" xmlns="http://www.w3.org/2000/svg">
<g clip-path="url(#clip0_62_11778)">
<path d="M44.1705 37.1044C45.1077 37.1044 46.0065 36.7321 46.6692 36.0694C47.3319 35.4068 47.7042 34.508 47.7042 33.5708V26.5035C47.7042 25.5664 47.3319 24.6676 46.6692 24.0049C46.0065 23.3422 45.1077 22.9699 44.1705 22.9699H38.8701L36.1492 14.7719C35.9034 14.0405 35.4249 13.4097 34.7868 12.9758C34.1487 12.542 33.3862 12.3288 32.6156 12.3691H18.4458C17.6752 12.3288 16.9127 12.542 16.2746 12.9758C15.6365 13.4097 15.158 14.0405 14.9122 14.7719L12.368 22.9699H5.30071C4.36354 22.9699 3.46475 23.3422 2.80206 24.0049C2.13938 24.6676 1.76709 25.5664 1.76709 26.5035V33.5708C1.76709 34.508 2.13938 35.4068 2.80206 36.0694C3.46475 36.7321 4.36354 37.1044 5.30071 37.1044" stroke="white" stroke-width="3.53362" stroke-linecap="round" stroke-linejoin="round"/>
<path d="M12.367 44.1706C16.2702 44.1706 19.4343 41.0065 19.4343 37.1034C19.4343 33.2002 16.2702 30.0361 12.367 30.0361C8.46392 30.0361 5.2998 33.2002 5.2998 37.1034C5.2998 41.0065 8.46392 44.1706 12.367 44.1706Z" stroke="white" stroke-width="3.53362" stroke-linecap="round" stroke-linejoin="round"/>
<path d="M37.1019 44.1706C41.005 44.1706 44.1692 41.0065 44.1692 37.1034C44.1692 33.2002 41.005 30.0361 37.1019 30.0361C33.1988 30.0361 30.0347 33.2002 30.0347 37.1034C30.0347 41.0065 33.1988 44.1706 37.1019 44.1706Z" stroke="white" stroke-width="3.53362" stroke-linecap="round" stroke-linejoin="round"/>
<path d="M19.4346 37.1035H30.0354" stroke="white" stroke-width="3.53362" stroke-linecap="round" stroke-linejoin="round"/>
<path d="M24.7344 12.367V5.2998" stroke="white" stroke-width="3.53362" stroke-linecap="round" stroke-linejoin="round"/>
</g>
<defs>
<clipPath id="clip0_62_11778">
<rect width="49.4707" height="49.4707" fill="white"/>
</clipPath>
</defs>
</svg>
