<svg width="397" height="376" viewBox="0 0 397 376" fill="none" xmlns="http://www.w3.org/2000/svg">
<path d="M127.634 93.8132C133.235 55.5823 166.234 27.3777 204.87 27.7981C236.385 28.141 264.528 47.6036 275.972 76.9693L392.386 375.696L86.8264 372.371L127.634 93.8132Z" fill="#AEFF17"/>
<mask id="mask0_62_8679" style="mask-type:alpha" maskUnits="userSpaceOnUse" x="151" y="90" width="43" height="20">
<ellipse cx="21.1933" cy="9.64374" rx="21.1933" ry="9.64374" transform="matrix(0.999988 0.00494933 -0.0239095 0.999714 151.266 90.5254)" fill="#D9D9D9"/>
</mask>
<g mask="url(#mask0_62_8679)">
<ellipse cx="21.1933" cy="9.64374" rx="21.1933" ry="9.64374" transform="matrix(0.999988 0.00494933 -0.0239095 0.999714 151.266 90.5254)" fill="white"/>
<ellipse cx="185.474" cy="90.7059" rx="13.2847" ry="23.3295" transform="rotate(-26.9549 185.474 90.7059)" fill="black"/>
</g>
<mask id="mask1_62_8679" style="mask-type:alpha" maskUnits="userSpaceOnUse" x="217" y="81" width="43" height="20">
<ellipse cx="21.1933" cy="9.64374" rx="21.1933" ry="9.64374" transform="matrix(0.999988 0.00494933 -0.0239095 0.999714 217.809 80.9902)" fill="#D9D9D9"/>
</mask>
<g mask="url(#mask1_62_8679)">
<ellipse cx="21.1933" cy="9.64374" rx="21.1933" ry="9.64374" transform="matrix(0.999988 0.00494933 -0.0239095 0.999714 217.809 80.9902)" fill="white"/>
<ellipse cx="252.017" cy="81.1707" rx="13.2847" ry="23.3295" transform="rotate(-26.9549 252.017 81.1707)" fill="black"/>
</g>
<path d="M176.105 35.8066L144.817 85.3336L117.57 33.4736L176.105 35.8066Z" fill="#AEFF17"/>
<path d="M244.604 40.7804L191.386 65.269L196.787 6.93632L244.604 40.7804Z" fill="#AEFF17"/>
<path d="M150.018 344.7L160.509 343.729L158.567 322.747L148.076 323.718L149.047 334.209L150.018 344.7ZM82.4857 261.991C88.2933 261.629 92.7083 256.628 92.347 250.821C91.9856 245.013 86.9848 240.598 81.1772 240.96L81.8315 251.475L82.4857 261.991ZM149.047 334.209L148.076 323.718C115.146 326.767 87.1935 323.74 65.8529 317.605C44.1679 311.372 30.4743 302.289 24.4974 294.277C21.6155 290.414 20.9369 287.395 21.0945 285.283C21.243 283.293 22.24 280.606 25.8089 277.472C33.4885 270.727 50.9411 263.953 82.4857 261.991L81.8315 251.475L81.1772 240.96C48.3529 243.002 24.9863 250.149 11.9037 261.64C5.09156 267.623 0.721782 275.132 0.0812421 283.715C-0.55024 292.177 2.55982 300.11 7.60766 306.877C17.4903 320.124 36.2206 331.012 60.0313 337.857C84.1865 344.801 114.801 347.96 150.018 344.7L149.047 334.209Z" fill="#AEFF17"/>
</svg>
