<svg width="1205" height="1085" viewBox="0 0 1205 1085" fill="none" xmlns="http://www.w3.org/2000/svg">
<path d="M398.673 602.384C396.168 629.051 334.751 650.97 357.849 584.535C368.061 555.164 382.18 536.096 395.019 524.397C400.239 519.641 405.804 515.071 411.346 510.444L338.488 474.116C325.599 467.69 320.36 452.032 326.786 439.143C333.212 426.255 348.87 421.016 361.759 427.442L447.126 470.007L385.368 417.424C374.402 408.088 373.081 391.63 382.417 380.665C391.753 369.699 408.211 368.378 419.177 377.714L474.074 424.454L453.549 384.171C447.011 371.34 452.113 355.637 464.945 349.099C477.777 342.561 493.48 347.663 500.018 360.495L550.754 460.069C550.872 460.301 550.985 460.534 551.095 460.767C570.541 495.003 598.408 519.597 623.505 535.431C649.611 551.902 672.882 576.625 677.361 607.165L678.448 614.576C684.852 658.236 652.29 697.933 608.22 700.192L444.06 708.604C431.071 709.27 420.001 699.28 419.335 686.29C418.576 671.489 431.514 659.674 446.186 661.771L452.22 662.633C507.795 663.221 538.938 608.813 504.774 566.137C462.031 512.742 401.178 575.716 398.673 602.384Z" fill="white"/>
<mask id="path-2-inside-1_91_37440" fill="white">
<path d="M314.921 666.001C315.343 702.957 345.644 732.574 382.601 732.152C419.557 731.73 449.174 701.429 448.752 664.473C448.33 627.516 418.029 597.899 381.073 598.321C344.116 598.743 314.499 629.044 314.921 666.001ZM419.161 664.81C419.396 685.424 402.876 702.325 382.263 702.56C361.65 702.796 344.748 686.276 344.513 665.663C344.278 645.049 360.797 628.148 381.411 627.913C402.024 627.677 418.925 644.197 419.161 664.81Z"/>
</mask>
<path d="M314.921 666.001C315.343 702.957 345.644 732.574 382.601 732.152C419.557 731.73 449.174 701.429 448.752 664.473C448.33 627.516 418.029 597.899 381.073 598.321C344.116 598.743 314.499 629.044 314.921 666.001ZM419.161 664.81C419.396 685.424 402.876 702.325 382.263 702.56C361.65 702.796 344.748 686.276 344.513 665.663C344.278 645.049 360.797 628.148 381.411 627.913C402.024 627.677 418.925 644.197 419.161 664.81Z" fill="#AEFF17" stroke="#AEFF17" stroke-width="1.55671" mask="url(#path-2-inside-1_91_37440)"/>
<line x1="16.9215" y1="-16.9215" x2="153.811" y2="-16.9215" transform="matrix(-0.999935 0.0114165 0.0114165 0.999935 333.72 680.118)" stroke="#AEFF17" stroke-width="33.8429" stroke-linecap="round"/>
<path d="M179.512 648.26C170.181 648.366 162.702 656.017 162.809 665.348L163.336 711.524L197.127 711.138L196.6 664.962C196.494 655.631 188.843 648.153 179.512 648.26V648.26Z" fill="#AEFF17"/>
<path d="M233.288 647.641C223.957 647.747 216.479 655.398 216.585 664.729L217.112 710.905L250.903 710.519L250.376 664.343C250.27 655.012 242.619 647.534 233.288 647.641V647.641Z" fill="#AEFF17"/>
<path d="M628.614 538.551C652.056 552.465 672.544 574.271 676.5 601.242L678.455 614.572C684.859 658.232 652.297 697.929 608.227 700.188L444.067 708.6C431.077 709.266 420.007 699.276 419.342 686.286C418.583 671.485 431.521 659.67 446.193 661.767L452.227 662.629C507.802 663.217 538.944 608.809 504.781 566.133C502.599 563.406 503.161 559.281 506.172 557.512L556.113 528.163C575.663 516.674 600.162 519.985 619.048 532.536C622.279 534.683 625.475 536.687 628.614 538.551Z" fill="white"/>
<path d="M1165.92 628.487L614.415 700.036C592.549 633.389 569.871 503.95 617.485 531.739C665.099 559.529 1068.03 507.143 1116.22 491.377L1165.92 628.487Z" fill="white"/>
</svg>
