<svg width="147" height="415" viewBox="0 0 147 415" fill="none" xmlns="http://www.w3.org/2000/svg">
<path d="M75.8232 0C114.595 0.000169117 146.026 31.4313 146.026 70.2031V344.355C146.026 383.127 114.595 414.558 75.8232 414.559H70.2031C31.4313 414.558 0.000248182 383.127 0 344.355V143.382C0 133.392 8.09822 125.294 18.0879 125.294L36.1729 125.294C36.1745 125.294 36.1758 125.295 36.1758 125.297C36.1758 125.298 36.1771 125.3 36.1787 125.3L87.2276 125.3C97.44 125.3 105.719 117.021 105.719 106.809V73.123C105.718 53.9197 90.1506 38.3518 70.9473 38.3516C51.7437 38.3516 36.176 53.9195 36.1758 73.123V81.6582C36.1758 91.6479 28.0776 99.7461 18.0879 99.7461C8.09822 99.7461 0 91.6479 0 81.6582V70.2031C0.000202347 31.4312 31.4312 0.000100646 70.2031 0H75.8232Z" fill="#AEFF17"/>
</svg>
