<svg width="167" height="356" viewBox="0 0 167 356" fill="none" xmlns="http://www.w3.org/2000/svg">
<mask id="path-1-inside-1_128_38693" fill="white">
<path d="M83.2092 189.121C37.2541 189.121 3.47909e-05 226.375 3.67997e-05 272.331C3.88085e-05 318.286 37.2541 355.54 83.2092 355.54C129.164 355.54 166.418 318.286 166.418 272.331C166.418 226.375 129.164 189.121 83.2092 189.121ZM83.2092 318.743C57.5766 318.743 36.7972 297.963 36.7972 272.331C36.7972 246.698 57.5766 225.918 83.2092 225.918C108.842 225.918 129.621 246.698 129.621 272.331C129.621 297.963 108.842 318.743 83.2092 318.743Z"/>
</mask>
<path d="M83.2092 189.121C37.2541 189.121 3.47909e-05 226.375 3.67997e-05 272.331C3.88085e-05 318.286 37.2541 355.54 83.2092 355.54C129.164 355.54 166.418 318.286 166.418 272.331C166.418 226.375 129.164 189.121 83.2092 189.121ZM83.2092 318.743C57.5766 318.743 36.7972 297.963 36.7972 272.331C36.7972 246.698 57.5766 225.918 83.2092 225.918C108.842 225.918 129.621 246.698 129.621 272.331C129.621 297.963 108.842 318.743 83.2092 318.743Z" fill="#AEFF17" stroke="#AEFF17" stroke-width="1.93564" mask="url(#path-1-inside-1_128_38693)"/>
<line x1="21.0404" y1="-21.0404" x2="191.251" y2="-21.0404" transform="matrix(-4.37114e-08 -1 -1 4.37114e-08 65.3896 212.293)" stroke="#AEFF17" stroke-width="42.0809" stroke-linecap="round"/>
<path d="M107.188 21.0098C107.188 9.40649 97.7822 0.000162325 86.1789 0.000162832L28.7595 0.000165342L28.7595 42.0194L86.1789 42.0194C97.7821 42.0194 107.188 32.6131 107.188 21.0098V21.0098Z" fill="#AEFF17"/>
<path d="M107.19 87.8882C107.19 76.2849 97.7841 66.8786 86.1808 66.8786L28.7614 66.8786L28.7614 108.898L86.1808 108.898C97.7841 108.898 107.19 99.4915 107.19 87.8882V87.8882Z" fill="#AEFF17"/>
</svg>
