<svg width="303" height="373" viewBox="0 0 303 373" fill="none" xmlns="http://www.w3.org/2000/svg">
<path d="M147.203 372.76L73.7739 282.236H229.105L147.203 372.76Z" fill="#AEFF17"/>
<rect width="302.867" height="303.364" rx="72.9072" fill="#AEFF17"/>
<path d="M104.788 245.019V81.8816H161.716V112.895H163.416C166.389 101.424 171.098 93.0336 177.541 87.7231C184.056 82.4127 191.667 79.7574 200.376 79.7574C202.925 79.7574 205.439 79.9698 207.917 80.3947C210.466 80.7487 212.909 81.2798 215.246 81.9878V132.012C212.343 131.021 208.767 130.278 204.519 129.782C200.27 129.286 196.624 129.039 193.579 129.039C187.844 129.039 182.675 130.348 178.072 132.968C173.541 135.517 169.965 139.128 167.345 143.802C164.725 148.404 163.416 153.821 163.416 160.052V245.019H104.788Z" fill="#1B1B1B"/>
</svg>
