<svg width="46" height="46" viewBox="0 0 46 46" fill="none" xmlns="http://www.w3.org/2000/svg">
<g clip-path="url(#clip0_62_11761)">
<path d="M39.2702 34.2947C35.4687 34.2715 31.7419 33.2376 28.4718 31.2992C25.2016 29.3609 22.5058 26.5876 20.6608 23.2639C18.8158 19.9402 17.8879 16.1856 17.9723 12.385C18.0567 8.58448 19.1503 4.87476 21.1411 1.63623C15.896 2.55702 11.1816 5.39733 7.91605 9.60386C4.65053 13.8104 3.06783 19.0819 3.47626 24.3915C3.88469 29.7011 6.25499 34.6685 10.1254 38.3261C13.9959 41.9837 19.0893 44.0695 24.4135 44.1773C28.0561 44.1866 31.6393 43.2545 34.8156 41.4714C37.9919 39.6883 40.6536 37.1147 42.5425 34.0002C41.4605 34.179 40.3667 34.2774 39.2702 34.2947V34.2947Z" stroke="white" stroke-width="3" stroke-linecap="round" stroke-linejoin="round"/>
</g>
<defs>
<clipPath id="clip0_62_11761">
<rect width="45.8135" height="45.8135" fill="white"/>
</clipPath>
</defs>
</svg>
