<svg width="46" height="46" viewBox="0 0 46 46" fill="none" xmlns="http://www.w3.org/2000/svg">
<g clip-path="url(#clip0_62_11768)">
<path d="M39.2148 24.51V17.9741C39.2148 17.1073 38.8705 16.2761 38.2576 15.6632C37.6447 15.0504 36.8135 14.7061 35.9468 14.7061H4.90081C4.03408 14.7061 3.20285 15.0504 2.58999 15.6632C1.97712 16.2761 1.63281 17.1073 1.63281 17.9741V40.85C1.63281 41.7168 1.97712 42.548 2.58999 43.1609C3.20285 43.7737 4.03408 44.118 4.90081 44.118H35.9468C36.8135 44.118 37.6447 43.7737 38.2576 43.1609C38.8705 42.548 39.2148 41.7168 39.2148 40.85V32.68" stroke="white" stroke-width="3" stroke-linecap="round" stroke-linejoin="round"/>
<path d="M12.5474 6.53727L31.0769 1.70064C31.2851 1.64197 31.5031 1.6261 31.7176 1.65398C31.9321 1.68187 32.1388 1.75293 32.3251 1.86288C32.5114 1.97282 32.6734 2.11938 32.8015 2.2937C32.9296 2.46801 33.0211 2.66648 33.0704 2.87711L33.9854 6.53727" stroke="white" stroke-width="3" stroke-linecap="round" stroke-linejoin="round"/>
<path d="M42.4822 24.5103H34.3122C33.4098 24.5103 32.6782 25.2418 32.6782 26.1443V31.0462C32.6782 31.9487 33.4098 32.6802 34.3122 32.6802H42.4822C43.3846 32.6802 44.1162 31.9487 44.1162 31.0462V26.1443C44.1162 25.2418 43.3846 24.5103 42.4822 24.5103Z" stroke="white" stroke-width="3" stroke-linecap="round" stroke-linejoin="round"/>
</g>
<defs>
<clipPath id="clip0_62_11768">
<rect width="45.752" height="45.752" fill="white"/>
</clipPath>
</defs>
</svg>
